<svg width="1208" height="570" viewBox="0 0 1208 570" fill="none" xmlns="http://www.w3.org/2000/svg">
<circle cx="208" cy="285" r="284" stroke="black" stroke-width="2"/>
<path d="M524.2 285.2C527.34 285.2 529.28 286.68 529.28 289.02C529.28 290.5 528.56 291.42 526.94 292V292.04C528.7 292.62 529.48 293.6 529.48 295.28C529.48 297.76 527.4 299.32 524.24 299.32C520.66 299.32 518.7 297.64 518.7 294.52H522.16C522.16 295.94 522.86 296.66 524.24 296.66C525.32 296.66 526.04 296.08 526.04 295.16C526.04 294.08 525.26 293.52 523.62 293.52H523.22V290.96H523.66C525.06 290.96 525.9 290.32 525.9 289.36C525.9 288.44 525.22 287.86 524.14 287.86C522.94 287.86 522.26 288.54 522.26 289.88H518.88C518.88 286.94 520.84 285.2 524.2 285.2ZM534.961 299H531.441V295.32H534.961V299ZM542.149 285.2C545.249 285.2 547.189 286.82 547.189 289.2C547.189 291.58 545.729 292.68 543.689 293.74C541.269 295 540.849 295.5 540.789 296.26H547.529V299H536.769C536.749 298.82 536.749 298.6 536.749 298.38C536.749 295.64 537.549 293.98 540.629 292.28C542.529 291.22 543.669 290.54 543.669 289.24C543.669 288.4 543.109 287.86 542.149 287.86C540.969 287.86 540.349 288.54 540.349 289.86H536.929C536.969 286.84 538.909 285.2 542.149 285.2ZM556.76 290.16H556.8C557.38 289.16 558.52 288.58 559.78 288.58C562.36 288.58 564 290.68 564 293.92C564 297.16 562.34 299.24 559.76 299.24C558.48 299.24 557.34 298.64 556.74 297.6H556.7V299H554.48V284.76H556.76V290.16ZM559.1 290.36C557.62 290.36 556.64 291.7 556.64 293.92C556.64 296.12 557.62 297.48 559.1 297.48C560.64 297.48 561.62 296.08 561.62 293.92C561.62 291.76 560.64 290.36 559.1 290.36ZM568.498 286.94H566.218V284.76H568.498V286.94ZM568.498 299H566.218V288.84H568.498V299ZM573.693 299H571.413V284.76H573.693V299ZM578.888 299H576.608V284.76H578.888V299ZM584.084 286.94H581.804V284.76H584.084V286.94ZM584.084 299H581.804V288.84H584.084V299ZM591.319 288.54C594.399 288.54 596.319 290.62 596.319 293.92C596.319 297.22 594.399 299.3 591.319 299.3C588.239 299.3 586.299 297.22 586.299 293.92C586.299 290.62 588.239 288.54 591.319 288.54ZM591.319 290.34C589.699 290.34 588.699 291.72 588.699 293.92C588.699 296.12 589.699 297.5 591.319 297.5C592.939 297.5 593.939 296.12 593.939 293.92C593.939 291.72 592.939 290.34 591.319 290.34ZM603.782 288.6C606.082 288.6 607.482 290 607.482 292.78V299H605.202V292.98C605.202 291.16 604.422 290.44 603.142 290.44C601.842 290.44 600.822 291.42 600.822 293.36V299H598.542V288.84H600.702V290.16H600.742C601.382 289.24 602.442 288.6 603.782 288.6ZM619.829 299H616.869L613.329 288.84H615.709L617.029 292.98C617.509 294.46 617.929 295.92 618.329 297.42H618.369C618.769 295.92 619.189 294.46 619.669 292.98L620.989 288.84H623.369L619.829 299ZM626.994 286.94H624.714V284.76H626.994V286.94ZM626.994 299H624.714V288.84H626.994V299ZM634.129 297.62C635.429 297.62 636.269 296.92 636.469 295.94H638.809C638.429 297.76 636.789 299.3 634.129 299.3C631.029 299.3 629.209 297.08 629.209 293.8C629.209 290.8 631.009 288.54 634.089 288.54C636.409 288.54 638.089 289.88 638.649 292C638.849 292.64 638.929 293.4 638.929 294.38H631.469C631.549 296.68 632.709 297.62 634.129 297.62ZM634.089 290.22C632.709 290.22 631.709 291.12 631.509 292.88H636.649C636.489 291.1 635.449 290.22 634.089 290.22ZM652.782 299H649.522L648.482 294.8C648.122 293.36 647.802 291.9 647.502 290.42H647.462C647.162 291.9 646.842 293.36 646.482 294.8L645.442 299H642.182L639.702 288.84H641.982L642.902 292.92C643.242 294.4 643.562 295.94 643.822 297.42H643.862C644.162 295.94 644.502 294.48 644.862 293L645.882 288.84H649.082L650.102 293C650.462 294.48 650.802 295.94 651.102 297.42H651.142C651.402 295.94 651.722 294.4 652.062 292.92L652.982 288.84H655.262L652.782 299ZM660.05 288.54C662.63 288.54 664.15 289.74 664.17 292H661.97C661.97 290.78 661.25 290.2 660.03 290.2C658.97 290.2 658.35 290.66 658.35 291.4C658.35 292.28 659.05 292.46 660.65 292.86C662.51 293.34 664.49 293.78 664.49 296.2C664.49 298.04 662.85 299.3 660.23 299.3C657.51 299.3 655.85 298.08 655.83 295.66H658.15C658.15 296.9 658.91 297.6 660.27 297.6C661.43 297.6 662.11 297.1 662.11 296.34C662.11 295.3 661.31 295.1 659.55 294.66C657.85 294.24 656.07 293.86 656.07 291.58C656.07 289.78 657.67 288.54 660.05 288.54Z" fill="black"/>
<path d="M520.351 317.906H524.638V319H518.836V317.84L522.053 314.689C523.099 313.655 523.285 313.384 523.309 312.693C523.309 311.941 522.684 311.34 521.842 311.34H521.716C520.79 311.34 520.153 311.983 520.128 312.981H518.926C518.902 311.364 520.116 310.24 521.77 310.258C523.375 310.24 524.53 311.286 524.512 312.657C524.512 313.354 524.289 313.895 523.892 314.382C523.694 314.629 523.417 314.917 523.075 315.254L520.351 317.906ZM529.703 310.222C531.729 310.204 532.992 311.893 532.98 314.653C532.992 317.413 531.753 319.102 529.703 319.084C527.653 319.102 526.42 317.413 526.432 314.653C526.42 311.893 527.677 310.204 529.703 310.222ZM529.769 311.304H529.643C528.482 311.304 527.635 312.368 527.635 314.653C527.635 315.194 527.683 315.675 527.773 316.09L531.296 312.278C530.942 311.629 530.412 311.304 529.769 311.304ZM529.643 318.002H529.769C530.93 318.002 531.771 316.938 531.771 314.653C531.771 314.184 531.735 313.763 531.669 313.384L528.182 317.154C528.537 317.725 529.048 318.002 529.643 318.002ZM538.676 317.906H541.081V319H535.009V317.906H537.522V312.116L535.526 314.028V312.536L537.738 310.378H538.676V317.906ZM546.062 313.336C547.619 313.318 548.876 314.503 548.846 316.144C548.864 317.84 547.625 319.144 545.864 319.12C543.825 319.12 542.647 317.551 542.647 314.935C542.617 312.206 544.228 310.222 546.273 310.258C547.71 310.258 548.762 311.099 548.99 312.5H547.782C547.716 312.158 547.547 311.881 547.277 311.665C547.006 311.448 546.669 311.34 546.273 311.34H546.158C544.95 311.322 543.856 312.536 543.729 314.683C543.928 314.256 544.24 313.919 544.667 313.685C545.088 313.45 545.551 313.336 546.062 313.336ZM545.804 318.038H545.912C546.904 318.038 547.637 317.256 547.637 316.228C547.637 315.2 546.934 314.418 545.912 314.418H545.804C544.775 314.418 544.006 315.188 544.006 316.216C544.006 317.256 544.763 318.038 545.804 318.038ZM552.089 315.17V314.202H555.39V315.17H552.089ZM560.407 317.906H564.694V319H558.892V317.84L562.109 314.689C563.155 313.655 563.341 313.384 563.365 312.693C563.365 311.941 562.74 311.34 561.898 311.34H561.772C560.846 311.34 560.209 311.983 560.185 312.981H558.982C558.958 311.364 560.173 310.24 561.826 310.258C563.431 310.24 564.586 311.286 564.568 312.657C564.568 313.354 564.345 313.895 563.949 314.382C563.75 314.629 563.474 314.917 563.131 315.254L560.407 317.906ZM569.759 310.222C571.785 310.204 573.048 311.893 573.036 314.653C573.048 317.413 571.809 319.102 569.759 319.084C567.709 319.102 566.476 317.413 566.488 314.653C566.476 311.893 567.733 310.204 569.759 310.222ZM569.825 311.304H569.699C568.539 311.304 567.691 312.368 567.691 314.653C567.691 315.194 567.739 315.675 567.829 316.09L571.352 312.278C570.998 311.629 570.469 311.304 569.825 311.304ZM569.699 318.002H569.825C570.986 318.002 571.827 316.938 571.827 314.653C571.827 314.184 571.791 313.763 571.725 313.384L568.238 317.154C568.593 317.725 569.104 318.002 569.699 318.002ZM578.732 317.906H581.137V319H575.065V317.906H577.578V312.116L575.582 314.028V312.536L577.794 310.378H578.732V317.906ZM585.649 310.258C587.688 310.258 588.866 311.827 588.866 314.442C588.896 317.172 587.285 319.156 585.24 319.12C583.803 319.12 582.751 318.278 582.523 316.878H583.731C583.797 317.22 583.972 317.497 584.242 317.713C584.513 317.93 584.844 318.038 585.24 318.038H585.355C586.563 318.056 587.658 316.841 587.784 314.695C587.585 315.122 587.273 315.453 586.852 315.687C586.425 315.922 585.962 316.042 585.451 316.042C583.894 316.06 582.637 314.875 582.667 313.234C582.649 311.538 583.888 310.234 585.649 310.258ZM585.601 314.96H585.709C586.738 314.96 587.507 314.19 587.507 313.162C587.507 312.122 586.75 311.34 585.709 311.34H585.601C584.609 311.34 583.876 312.122 583.876 313.15C583.876 314.178 584.579 314.96 585.601 314.96Z" fill="black"/>
<circle cx="946.5" cy="499.5" r="69.5" stroke="black" stroke-width="2"/>
<path d="M1043.22 485.2C1046.84 485.2 1048.86 487.76 1048.86 492.26C1048.86 496.78 1046.84 499.32 1043.22 499.32C1039.6 499.32 1037.58 496.78 1037.58 492.26C1037.58 487.76 1039.6 485.2 1043.22 485.2ZM1043.22 487.88C1041.82 487.88 1041.08 489.46 1041.08 492.26C1041.08 495.08 1041.82 496.68 1043.22 496.68C1044.62 496.68 1045.38 495.08 1045.38 492.26C1045.38 489.46 1044.62 487.88 1043.22 487.88ZM1053.96 499H1050.44V495.32H1053.96V499ZM1067.03 496.2H1064.95V499H1061.59V496.2H1055.19V493.48L1060.49 485.52H1064.95V493.62H1067.03V496.2ZM1058.19 493.62H1061.71V492.12C1061.71 490.72 1061.75 489.32 1061.85 487.92H1061.81C1061.09 489.22 1060.31 490.48 1059.47 491.74L1058.19 493.62ZM1073.61 485.2C1076.75 485.2 1078.69 486.68 1078.69 489.02C1078.69 490.5 1077.97 491.42 1076.35 492V492.04C1078.11 492.62 1078.89 493.6 1078.89 495.28C1078.89 497.76 1076.81 499.32 1073.65 499.32C1070.07 499.32 1068.11 497.64 1068.11 494.52H1071.57C1071.57 495.94 1072.27 496.66 1073.65 496.66C1074.73 496.66 1075.45 496.08 1075.45 495.16C1075.45 494.08 1074.67 493.52 1073.03 493.52H1072.63V490.96H1073.07C1074.47 490.96 1075.31 490.32 1075.31 489.36C1075.31 488.44 1074.63 487.86 1073.55 487.86C1072.35 487.86 1071.67 488.54 1071.67 489.88H1068.29C1068.29 486.94 1070.25 485.2 1073.61 485.2ZM1092.83 490.16H1092.87C1093.45 489.16 1094.59 488.58 1095.85 488.58C1098.43 488.58 1100.07 490.68 1100.07 493.92C1100.07 497.16 1098.41 499.24 1095.83 499.24C1094.55 499.24 1093.41 498.64 1092.81 497.6H1092.77V499H1090.55V484.76H1092.83V490.16ZM1095.17 490.36C1093.69 490.36 1092.71 491.7 1092.71 493.92C1092.71 496.12 1093.69 497.48 1095.17 497.48C1096.71 497.48 1097.69 496.08 1097.69 493.92C1097.69 491.76 1096.71 490.36 1095.17 490.36ZM1104.57 486.94H1102.29V484.76H1104.57V486.94ZM1104.57 499H1102.29V488.84H1104.57V499ZM1109.76 499H1107.48V484.76H1109.76V499ZM1114.96 499H1112.68V484.76H1114.96V499ZM1120.15 486.94H1117.87V484.76H1120.15V486.94ZM1120.15 499H1117.87V488.84H1120.15V499ZM1127.39 488.54C1130.47 488.54 1132.39 490.62 1132.39 493.92C1132.39 497.22 1130.47 499.3 1127.39 499.3C1124.31 499.3 1122.37 497.22 1122.37 493.92C1122.37 490.62 1124.31 488.54 1127.39 488.54ZM1127.39 490.34C1125.77 490.34 1124.77 491.72 1124.77 493.92C1124.77 496.12 1125.77 497.5 1127.39 497.5C1129.01 497.5 1130.01 496.12 1130.01 493.92C1130.01 491.72 1129.01 490.34 1127.39 490.34ZM1139.85 488.6C1142.15 488.6 1143.55 490 1143.55 492.78V499H1141.27V492.98C1141.27 491.16 1140.49 490.44 1139.21 490.44C1137.91 490.44 1136.89 491.42 1136.89 493.36V499H1134.61V488.84H1136.77V490.16H1136.81C1137.45 489.24 1138.51 488.6 1139.85 488.6ZM1155.9 499H1152.94L1149.4 488.84H1151.78L1153.1 492.98C1153.58 494.46 1154 495.92 1154.4 497.42H1154.44C1154.84 495.92 1155.26 494.46 1155.74 492.98L1157.06 488.84H1159.44L1155.9 499ZM1163.06 486.94H1160.78V484.76H1163.06V486.94ZM1163.06 499H1160.78V488.84H1163.06V499ZM1170.2 497.62C1171.5 497.62 1172.34 496.92 1172.54 495.94H1174.88C1174.5 497.76 1172.86 499.3 1170.2 499.3C1167.1 499.3 1165.28 497.08 1165.28 493.8C1165.28 490.8 1167.08 488.54 1170.16 488.54C1172.48 488.54 1174.16 489.88 1174.72 492C1174.92 492.64 1175 493.4 1175 494.38H1167.54C1167.62 496.68 1168.78 497.62 1170.2 497.62ZM1170.16 490.22C1168.78 490.22 1167.78 491.12 1167.58 492.88H1172.72C1172.56 491.1 1171.52 490.22 1170.16 490.22ZM1188.85 499H1185.59L1184.55 494.8C1184.19 493.36 1183.87 491.9 1183.57 490.42H1183.53C1183.23 491.9 1182.91 493.36 1182.55 494.8L1181.51 499H1178.25L1175.77 488.84H1178.05L1178.97 492.92C1179.31 494.4 1179.63 495.94 1179.89 497.42H1179.93C1180.23 495.94 1180.57 494.48 1180.93 493L1181.95 488.84H1185.15L1186.17 493C1186.53 494.48 1186.87 495.94 1187.17 497.42H1187.21C1187.47 495.94 1187.79 494.4 1188.13 492.92L1189.05 488.84H1191.33L1188.85 499ZM1196.12 488.54C1198.7 488.54 1200.22 489.74 1200.24 492H1198.04C1198.04 490.78 1197.32 490.2 1196.1 490.2C1195.04 490.2 1194.42 490.66 1194.42 491.4C1194.42 492.28 1195.12 492.46 1196.72 492.86C1198.58 493.34 1200.56 493.78 1200.56 496.2C1200.56 498.04 1198.92 499.3 1196.3 499.3C1193.58 499.3 1191.92 498.08 1191.9 495.66H1194.22C1194.22 496.9 1194.98 497.6 1196.34 497.6C1197.5 497.6 1198.18 497.1 1198.18 496.34C1198.18 495.3 1197.38 495.1 1195.62 494.66C1193.92 494.24 1192.14 493.86 1192.14 491.58C1192.14 489.78 1193.74 488.54 1196.12 488.54Z" fill="black"/>
<path d="M1039.16 515.469H1043.09V516.473H1037.77V515.408L1040.72 512.517C1041.68 511.568 1041.85 511.32 1041.87 510.686C1041.87 509.996 1041.3 509.445 1040.53 509.445H1040.41C1039.56 509.445 1038.97 510.035 1038.95 510.951H1037.85C1037.83 509.467 1038.94 508.435 1040.46 508.452C1041.93 508.435 1042.99 509.395 1042.97 510.653C1042.97 511.293 1042.77 511.789 1042.41 512.236C1042.22 512.462 1041.97 512.727 1041.66 513.036L1039.16 515.469ZM1047.74 508.419C1049.6 508.402 1050.75 509.952 1050.74 512.484C1050.75 515.016 1049.62 516.566 1047.74 516.55C1045.86 516.566 1044.73 515.016 1044.74 512.484C1044.73 509.952 1045.88 508.402 1047.74 508.419ZM1047.8 509.412H1047.68C1046.62 509.412 1045.84 510.388 1045.84 512.484C1045.84 512.981 1045.88 513.422 1045.97 513.803L1049.2 510.305C1048.87 509.709 1048.39 509.412 1047.8 509.412ZM1047.68 515.557H1047.8C1048.86 515.557 1049.64 514.58 1049.64 512.484C1049.64 512.054 1049.6 511.668 1049.54 511.32L1046.34 514.779C1046.67 515.303 1047.14 515.557 1047.68 515.557ZM1053.86 515.469H1057.79V516.473H1052.47V515.408L1055.42 512.517C1056.38 511.568 1056.55 511.32 1056.57 510.686C1056.57 509.996 1056 509.445 1055.23 509.445H1055.11C1054.26 509.445 1053.68 510.035 1053.65 510.951H1052.55C1052.53 509.467 1053.64 508.435 1055.16 508.452C1056.63 508.435 1057.69 509.395 1057.67 510.653C1057.67 511.293 1057.47 511.789 1057.11 512.236C1056.92 512.462 1056.67 512.727 1056.36 513.036L1053.86 515.469ZM1062.44 508.419C1064.3 508.402 1065.46 509.952 1065.44 512.484C1065.46 515.016 1064.32 516.566 1062.44 516.55C1060.56 516.566 1059.43 515.016 1059.44 512.484C1059.43 509.952 1060.58 508.402 1062.44 508.419ZM1062.5 509.412H1062.38C1061.32 509.412 1060.54 510.388 1060.54 512.484C1060.54 512.981 1060.58 513.422 1060.67 513.803L1063.9 510.305C1063.57 509.709 1063.09 509.412 1062.5 509.412ZM1062.38 515.557H1062.5C1063.56 515.557 1064.34 514.58 1064.34 512.484C1064.34 512.054 1064.3 511.668 1064.24 511.32L1061.04 514.779C1061.37 515.303 1061.84 515.557 1062.38 515.557ZM1068.28 512.959V512.07H1071.31V512.959H1068.28ZM1075.91 515.469H1079.84V516.473H1074.52V515.408L1077.47 512.517C1078.43 511.568 1078.6 511.32 1078.62 510.686C1078.62 509.996 1078.05 509.445 1077.28 509.445H1077.16C1076.31 509.445 1075.73 510.035 1075.7 510.951H1074.6C1074.58 509.467 1075.69 508.435 1077.21 508.452C1078.68 508.435 1079.74 509.395 1079.73 510.653C1079.73 511.293 1079.52 511.789 1079.16 512.236C1078.98 512.462 1078.72 512.727 1078.41 513.036L1075.91 515.469ZM1084.49 508.419C1086.35 508.402 1087.51 509.952 1087.49 512.484C1087.51 515.016 1086.37 516.566 1084.49 516.55C1082.61 516.566 1081.48 515.016 1081.49 512.484C1081.48 509.952 1082.63 508.402 1084.49 508.419ZM1084.55 509.412H1084.43C1083.37 509.412 1082.59 510.388 1082.59 512.484C1082.59 512.981 1082.63 513.422 1082.72 513.803L1085.95 510.305C1085.62 509.709 1085.14 509.412 1084.55 509.412ZM1084.43 515.557H1084.55C1085.61 515.557 1086.39 514.58 1086.39 512.484C1086.39 512.054 1086.35 511.668 1086.29 511.32L1083.09 514.779C1083.42 515.303 1083.89 515.557 1084.43 515.557ZM1090.61 515.469H1094.54V516.473H1089.22V515.408L1092.17 512.517C1093.13 511.568 1093.3 511.32 1093.32 510.686C1093.32 509.996 1092.75 509.445 1091.98 509.445H1091.86C1091.01 509.445 1090.43 510.035 1090.4 510.951H1089.3C1089.28 509.467 1090.39 508.435 1091.91 508.452C1093.38 508.435 1094.44 509.395 1094.43 510.653C1094.43 511.293 1094.22 511.789 1093.86 512.236C1093.68 512.462 1093.42 512.727 1093.11 513.036L1090.61 515.469ZM1099.16 516.583C1097.58 516.583 1096.56 515.761 1096.48 514.382H1097.59C1097.7 515.132 1098.25 515.59 1099.1 515.59H1099.21C1100.14 515.59 1100.76 515.049 1100.76 514.283C1100.76 513.494 1100.1 513.025 1099.19 513.025H1098.67V512.021H1099.23C1100.12 512.021 1100.72 511.48 1100.72 510.735C1100.72 509.958 1100.09 509.445 1099.25 509.445H1099.13C1098.38 509.445 1097.8 509.947 1097.73 510.675H1096.63C1096.64 509.412 1097.76 508.43 1099.19 508.452C1100.72 508.435 1101.85 509.356 1101.83 510.631C1101.83 511.508 1101.27 512.23 1100.48 512.506C1101.27 512.738 1101.88 513.428 1101.88 514.349C1101.9 515.778 1100.66 516.594 1099.16 516.583Z" fill="black"/>
</svg>
